<mxfile host="app.diagrams.net" agent="Mozilla/5.0 (Windows NT 10.0; Win64; x64) AppleWebKit/537.36 (KHTML, like Gecko) Chrome/126.0.0.0 Safari/537.36" version="24.8.2">
  <diagram name="Page-1" id="2a216829-ef6e-dabb-86c1-c78162f3ba2b">
    <mxGraphModel dx="185" dy="551" grid="0" gridSize="10" guides="1" tooltips="1" connect="1" arrows="1" fold="1" page="1" pageScale="1" pageWidth="850" pageHeight="1100" background="none" math="0" shadow="0">
      <root>
        <mxCell id="0" />
        <mxCell id="1" parent="0" />
        <mxCell id="nDwCT-81fd5Fx0zlanSL-8" value="Оформление заказа из акционных товаров" style="swimlane;html=1;childLayout=stackLayout;resizeParent=1;resizeParentMax=0;horizontal=0;startSize=36;horizontalStack=0;whiteSpace=wrap;fontSize=12;" vertex="1" parent="1">
          <mxGeometry x="920" y="265" width="2063" height="379" as="geometry" />
        </mxCell>
        <mxCell id="nDwCT-81fd5Fx0zlanSL-29" value="" style="edgeStyle=elbowEdgeStyle;fontSize=12;html=1;endArrow=blockThin;endFill=1;rounded=0;exitX=1;exitY=0.5;exitDx=0;exitDy=0;exitPerimeter=0;entryX=0.5;entryY=1;entryDx=0;entryDy=0;entryPerimeter=0;" edge="1" parent="nDwCT-81fd5Fx0zlanSL-8" source="nDwCT-81fd5Fx0zlanSL-28" target="nDwCT-81fd5Fx0zlanSL-30">
          <mxGeometry width="160" relative="1" as="geometry">
            <mxPoint x="355" y="241" as="sourcePoint" />
            <mxPoint x="515" y="241" as="targetPoint" />
            <Array as="points">
              <mxPoint x="342" y="190" />
            </Array>
          </mxGeometry>
        </mxCell>
        <mxCell id="nDwCT-81fd5Fx0zlanSL-34" value="" style="edgeStyle=elbowEdgeStyle;fontSize=12;html=1;endArrow=blockThin;endFill=1;rounded=0;exitX=1.006;exitY=0.925;exitDx=0;exitDy=0;exitPerimeter=0;entryX=0.5;entryY=0;entryDx=0;entryDy=0;entryPerimeter=0;" edge="1" parent="nDwCT-81fd5Fx0zlanSL-8" source="nDwCT-81fd5Fx0zlanSL-30" target="nDwCT-81fd5Fx0zlanSL-31">
          <mxGeometry width="160" relative="1" as="geometry">
            <mxPoint x="382" y="136" as="sourcePoint" />
            <mxPoint x="542" y="136" as="targetPoint" />
            <Array as="points">
              <mxPoint x="414" y="192" />
            </Array>
          </mxGeometry>
        </mxCell>
        <mxCell id="nDwCT-81fd5Fx0zlanSL-36" value="" style="edgeStyle=elbowEdgeStyle;fontSize=12;html=1;endArrow=blockThin;endFill=1;rounded=0;exitX=1;exitY=0.25;exitDx=0;exitDy=0;exitPerimeter=0;entryX=0.5;entryY=1;entryDx=0;entryDy=0;entryPerimeter=0;" edge="1" parent="nDwCT-81fd5Fx0zlanSL-8" source="nDwCT-81fd5Fx0zlanSL-31" target="nDwCT-81fd5Fx0zlanSL-35">
          <mxGeometry width="160" relative="1" as="geometry">
            <mxPoint x="462" y="230" as="sourcePoint" />
            <mxPoint x="622" y="230" as="targetPoint" />
            <Array as="points">
              <mxPoint x="501" y="183" />
            </Array>
          </mxGeometry>
        </mxCell>
        <mxCell id="nDwCT-81fd5Fx0zlanSL-38" value="" style="edgeStyle=elbowEdgeStyle;fontSize=12;html=1;endArrow=blockThin;endFill=1;rounded=0;exitX=1;exitY=0.75;exitDx=0;exitDy=0;exitPerimeter=0;entryX=0.5;entryY=0;entryDx=0;entryDy=0;entryPerimeter=0;" edge="1" parent="nDwCT-81fd5Fx0zlanSL-8" source="nDwCT-81fd5Fx0zlanSL-35" target="nDwCT-81fd5Fx0zlanSL-37">
          <mxGeometry width="160" relative="1" as="geometry">
            <mxPoint x="542" y="160" as="sourcePoint" />
            <mxPoint x="702" y="160" as="targetPoint" />
            <Array as="points">
              <mxPoint x="583" y="172" />
            </Array>
          </mxGeometry>
        </mxCell>
        <mxCell id="nDwCT-81fd5Fx0zlanSL-19" value="" style="edgeStyle=elbowEdgeStyle;fontSize=12;html=1;endArrow=blockThin;endFill=1;rounded=0;exitX=0.5;exitY=1;exitDx=0;exitDy=0;exitPerimeter=0;entryX=0.5;entryY=0;entryDx=0;entryDy=0;entryPerimeter=0;" edge="1" parent="nDwCT-81fd5Fx0zlanSL-8" source="nDwCT-81fd5Fx0zlanSL-18" target="nDwCT-81fd5Fx0zlanSL-20">
          <mxGeometry width="160" relative="1" as="geometry">
            <mxPoint x="202" y="183" as="sourcePoint" />
            <mxPoint x="190" y="207" as="targetPoint" />
          </mxGeometry>
        </mxCell>
        <mxCell id="nDwCT-81fd5Fx0zlanSL-41" value="" style="edgeStyle=elbowEdgeStyle;fontSize=12;html=1;endArrow=blockThin;endFill=1;rounded=0;exitX=0.75;exitY=0;exitDx=0;exitDy=0;exitPerimeter=0;entryX=0;entryY=0.5;entryDx=0;entryDy=0;entryPerimeter=0;" edge="1" parent="nDwCT-81fd5Fx0zlanSL-8" source="nDwCT-81fd5Fx0zlanSL-37" target="nDwCT-81fd5Fx0zlanSL-40">
          <mxGeometry width="160" relative="1" as="geometry">
            <mxPoint x="636" y="220" as="sourcePoint" />
            <mxPoint x="796" y="220" as="targetPoint" />
            <Array as="points">
              <mxPoint x="622" y="177" />
            </Array>
          </mxGeometry>
        </mxCell>
        <mxCell id="nDwCT-81fd5Fx0zlanSL-61" value="" style="edgeStyle=elbowEdgeStyle;fontSize=12;html=1;endArrow=blockThin;endFill=1;rounded=0;exitX=1;exitY=0.5;exitDx=0;exitDy=0;exitPerimeter=0;entryX=0.5;entryY=1;entryDx=0;entryDy=0;entryPerimeter=0;" edge="1" parent="nDwCT-81fd5Fx0zlanSL-8" source="nDwCT-81fd5Fx0zlanSL-54" target="nDwCT-81fd5Fx0zlanSL-59">
          <mxGeometry width="160" relative="1" as="geometry">
            <mxPoint x="952" y="278" as="sourcePoint" />
            <mxPoint x="1112" y="278" as="targetPoint" />
            <Array as="points">
              <mxPoint x="951" y="209" />
            </Array>
          </mxGeometry>
        </mxCell>
        <mxCell id="nDwCT-81fd5Fx0zlanSL-63" value="" style="edgeStyle=elbowEdgeStyle;fontSize=12;html=1;endArrow=blockThin;endFill=1;rounded=0;exitX=1;exitY=0.75;exitDx=0;exitDy=0;exitPerimeter=0;entryX=0.5;entryY=0;entryDx=0;entryDy=0;entryPerimeter=0;" edge="1" parent="nDwCT-81fd5Fx0zlanSL-8" source="nDwCT-81fd5Fx0zlanSL-59" target="nDwCT-81fd5Fx0zlanSL-62">
          <mxGeometry width="160" relative="1" as="geometry">
            <mxPoint x="1026" y="154" as="sourcePoint" />
            <mxPoint x="1186" y="154" as="targetPoint" />
            <Array as="points">
              <mxPoint x="1036" y="177" />
            </Array>
          </mxGeometry>
        </mxCell>
        <mxCell id="nDwCT-81fd5Fx0zlanSL-65" value="" style="edgeStyle=elbowEdgeStyle;fontSize=12;html=1;endArrow=blockThin;endFill=1;rounded=0;exitX=1;exitY=0.25;exitDx=0;exitDy=0;exitPerimeter=0;entryX=0.5;entryY=1;entryDx=0;entryDy=0;entryPerimeter=0;" edge="1" parent="nDwCT-81fd5Fx0zlanSL-8" source="nDwCT-81fd5Fx0zlanSL-62" target="nDwCT-81fd5Fx0zlanSL-64">
          <mxGeometry width="160" relative="1" as="geometry">
            <mxPoint x="1082" y="225" as="sourcePoint" />
            <mxPoint x="1242" y="225" as="targetPoint" />
            <Array as="points">
              <mxPoint x="1110" y="188" />
            </Array>
          </mxGeometry>
        </mxCell>
        <mxCell id="nDwCT-81fd5Fx0zlanSL-66" value="" style="edgeStyle=elbowEdgeStyle;fontSize=12;html=1;endArrow=blockThin;endFill=1;rounded=0;exitX=1;exitY=0.75;exitDx=0;exitDy=0;exitPerimeter=0;entryX=0.5;entryY=0;entryDx=0;entryDy=0;entryPerimeter=0;" edge="1" parent="nDwCT-81fd5Fx0zlanSL-8" source="nDwCT-81fd5Fx0zlanSL-64" target="nDwCT-81fd5Fx0zlanSL-67">
          <mxGeometry width="160" relative="1" as="geometry">
            <mxPoint x="1143" y="143" as="sourcePoint" />
            <mxPoint x="1303" y="143" as="targetPoint" />
            <Array as="points">
              <mxPoint x="1166" y="175" />
            </Array>
          </mxGeometry>
        </mxCell>
        <mxCell id="nDwCT-81fd5Fx0zlanSL-76" value="" style="edgeStyle=elbowEdgeStyle;fontSize=12;html=1;endArrow=blockThin;endFill=1;rounded=0;exitX=0.954;exitY=0.001;exitDx=0;exitDy=0;exitPerimeter=0;entryX=0;entryY=0.5;entryDx=0;entryDy=0;entryPerimeter=0;" edge="1" parent="nDwCT-81fd5Fx0zlanSL-8" source="nDwCT-81fd5Fx0zlanSL-67" target="nDwCT-81fd5Fx0zlanSL-75">
          <mxGeometry width="160" relative="1" as="geometry">
            <mxPoint x="1214" y="166" as="sourcePoint" />
            <mxPoint x="1238" y="108" as="targetPoint" />
            <Array as="points">
              <mxPoint x="1215" y="177" />
            </Array>
          </mxGeometry>
        </mxCell>
        <mxCell id="nDwCT-81fd5Fx0zlanSL-79" value="" style="edgeStyle=elbowEdgeStyle;fontSize=12;html=1;endArrow=blockThin;endFill=1;rounded=0;exitX=1;exitY=0.5;exitDx=0;exitDy=0;exitPerimeter=0;entryX=0.25;entryY=0;entryDx=0;entryDy=0;entryPerimeter=0;" edge="1" parent="nDwCT-81fd5Fx0zlanSL-8" source="nDwCT-81fd5Fx0zlanSL-75" target="nDwCT-81fd5Fx0zlanSL-80">
          <mxGeometry width="160" relative="1" as="geometry">
            <mxPoint x="1290" y="81" as="sourcePoint" />
            <mxPoint x="1450" y="81" as="targetPoint" />
            <Array as="points">
              <mxPoint x="1442" y="172" />
            </Array>
          </mxGeometry>
        </mxCell>
        <mxCell id="nDwCT-81fd5Fx0zlanSL-91" value="Да" style="edgeLabel;html=1;align=center;verticalAlign=middle;resizable=0;points=[];" vertex="1" connectable="0" parent="nDwCT-81fd5Fx0zlanSL-79">
          <mxGeometry x="-0.843" relative="1" as="geometry">
            <mxPoint as="offset" />
          </mxGeometry>
        </mxCell>
        <mxCell id="nDwCT-81fd5Fx0zlanSL-9" value="Покупатель" style="swimlane;html=1;startSize=20;horizontal=0;" vertex="1" parent="nDwCT-81fd5Fx0zlanSL-8">
          <mxGeometry x="36" width="2027" height="194" as="geometry" />
        </mxCell>
        <mxCell id="nDwCT-81fd5Fx0zlanSL-12" value="" style="points=[[0.145,0.145,0],[0.5,0,0],[0.855,0.145,0],[1,0.5,0],[0.855,0.855,0],[0.5,1,0],[0.145,0.855,0],[0,0.5,0]];shape=mxgraph.bpmn.event;html=1;verticalLabelPosition=bottom;labelBackgroundColor=#ffffff;verticalAlign=top;align=center;perimeter=ellipsePerimeter;outlineConnect=0;aspect=fixed;outline=standard;symbol=general;" vertex="1" parent="nDwCT-81fd5Fx0zlanSL-9">
          <mxGeometry x="33" y="73" width="28" height="28" as="geometry" />
        </mxCell>
        <mxCell id="nDwCT-81fd5Fx0zlanSL-15" value="" style="edgeStyle=elbowEdgeStyle;fontSize=12;html=1;endArrow=blockThin;endFill=1;rounded=0;exitX=1;exitY=0.5;exitDx=0;exitDy=0;exitPerimeter=0;" edge="1" parent="nDwCT-81fd5Fx0zlanSL-9" source="nDwCT-81fd5Fx0zlanSL-12">
          <mxGeometry width="160" relative="1" as="geometry">
            <mxPoint x="93" y="87" as="sourcePoint" />
            <mxPoint x="102" y="87" as="targetPoint" />
          </mxGeometry>
        </mxCell>
        <mxCell id="nDwCT-81fd5Fx0zlanSL-18" value="Зайти в раздел &quot;Лучшие акции&quot;" style="points=[[0.25,0,0],[0.5,0,0],[0.75,0,0],[1,0.25,0],[1,0.5,0],[1,0.75,0],[0.75,1,0],[0.5,1,0],[0.25,1,0],[0,0.75,0],[0,0.5,0],[0,0.25,0]];shape=mxgraph.bpmn.task;whiteSpace=wrap;rectStyle=rounded;size=10;html=1;container=1;expand=0;collapsible=0;taskMarker=user;" vertex="1" parent="nDwCT-81fd5Fx0zlanSL-9">
          <mxGeometry x="102" y="61.75" width="113" height="59.25" as="geometry" />
        </mxCell>
        <mxCell id="nDwCT-81fd5Fx0zlanSL-22" value="Есть ли акции?" style="text;html=1;align=center;verticalAlign=middle;resizable=0;points=[];autosize=1;strokeColor=none;fillColor=none;" vertex="1" parent="nDwCT-81fd5Fx0zlanSL-9">
          <mxGeometry x="57" y="151" width="103" height="26" as="geometry" />
        </mxCell>
        <mxCell id="nDwCT-81fd5Fx0zlanSL-30" value="Выбрать интересующую группу акций" style="points=[[0.25,0,0],[0.5,0,0],[0.75,0,0],[1,0.25,0],[1,0.5,0],[1,0.75,0],[0.75,1,0],[0.5,1,0],[0.25,1,0],[0,0.75,0],[0,0.5,0],[0,0.25,0]];shape=mxgraph.bpmn.task;whiteSpace=wrap;rectStyle=rounded;size=10;html=1;container=1;expand=0;collapsible=0;taskMarker=user;" vertex="1" parent="nDwCT-81fd5Fx0zlanSL-9">
          <mxGeometry x="249" y="62" width="113" height="57" as="geometry" />
        </mxCell>
        <mxCell id="nDwCT-81fd5Fx0zlanSL-35" value="Выбрать нужные категории и подкатегории" style="points=[[0.25,0,0],[0.5,0,0],[0.75,0,0],[1,0.25,0],[1,0.5,0],[1,0.75,0],[0.75,1,0],[0.5,1,0],[0.25,1,0],[0,0.75,0],[0,0.5,0],[0,0.25,0]];shape=mxgraph.bpmn.task;whiteSpace=wrap;rectStyle=rounded;size=10;html=1;container=1;expand=0;collapsible=0;taskMarker=user;" vertex="1" parent="nDwCT-81fd5Fx0zlanSL-9">
          <mxGeometry x="396" y="62" width="138" height="56" as="geometry" />
        </mxCell>
        <mxCell id="nDwCT-81fd5Fx0zlanSL-40" value="" style="points=[[0.25,0.25,0],[0.5,0,0],[0.75,0.25,0],[1,0.5,0],[0.75,0.75,0],[0.5,1,0],[0.25,0.75,0],[0,0.5,0]];shape=mxgraph.bpmn.gateway2;html=1;verticalLabelPosition=bottom;labelBackgroundColor=#ffffff;verticalAlign=top;align=center;perimeter=rhombusPerimeter;outlineConnect=0;outline=none;symbol=none;gwType=exclusive;" vertex="1" parent="nDwCT-81fd5Fx0zlanSL-9">
          <mxGeometry x="600" y="67" width="37" height="37" as="geometry" />
        </mxCell>
        <mxCell id="nDwCT-81fd5Fx0zlanSL-44" value="Использовать&lt;div&gt;фильтр?&lt;/div&gt;" style="text;html=1;align=center;verticalAlign=middle;resizable=0;points=[];autosize=1;strokeColor=none;fillColor=none;" vertex="1" parent="nDwCT-81fd5Fx0zlanSL-9">
          <mxGeometry x="579" y="106" width="95" height="41" as="geometry" />
        </mxCell>
        <mxCell id="nDwCT-81fd5Fx0zlanSL-45" value="" style="edgeStyle=elbowEdgeStyle;fontSize=12;html=1;endArrow=blockThin;endFill=1;rounded=0;exitX=1;exitY=0.5;exitDx=0;exitDy=0;exitPerimeter=0;elbow=horizontal;" edge="1" parent="nDwCT-81fd5Fx0zlanSL-9" source="nDwCT-81fd5Fx0zlanSL-40">
          <mxGeometry width="160" relative="1" as="geometry">
            <mxPoint x="662" y="79" as="sourcePoint" />
            <mxPoint x="705" y="86" as="targetPoint" />
          </mxGeometry>
        </mxCell>
        <mxCell id="nDwCT-81fd5Fx0zlanSL-47" value="Да" style="edgeLabel;html=1;align=center;verticalAlign=middle;resizable=0;points=[];" vertex="1" connectable="0" parent="nDwCT-81fd5Fx0zlanSL-45">
          <mxGeometry x="-0.4676" y="-1" relative="1" as="geometry">
            <mxPoint x="1" as="offset" />
          </mxGeometry>
        </mxCell>
        <mxCell id="nDwCT-81fd5Fx0zlanSL-46" value="Воспользоваться фильтром" style="points=[[0.25,0,0],[0.5,0,0],[0.75,0,0],[1,0.25,0],[1,0.5,0],[1,0.75,0],[0.75,1,0],[0.5,1,0],[0.25,1,0],[0,0.75,0],[0,0.5,0],[0,0.25,0]];shape=mxgraph.bpmn.task;whiteSpace=wrap;rectStyle=rounded;size=10;html=1;container=1;expand=0;collapsible=0;taskMarker=user;" vertex="1" parent="nDwCT-81fd5Fx0zlanSL-9">
          <mxGeometry x="703" y="65" width="110" height="56" as="geometry" />
        </mxCell>
        <mxCell id="nDwCT-81fd5Fx0zlanSL-48" value="" style="edgeStyle=elbowEdgeStyle;fontSize=12;html=1;endArrow=blockThin;endFill=1;rounded=0;exitX=0.5;exitY=1;exitDx=0;exitDy=0;exitPerimeter=0;" edge="1" parent="nDwCT-81fd5Fx0zlanSL-9" source="nDwCT-81fd5Fx0zlanSL-46">
          <mxGeometry width="160" relative="1" as="geometry">
            <mxPoint x="737" y="161" as="sourcePoint" />
            <mxPoint x="758" y="215" as="targetPoint" />
          </mxGeometry>
        </mxCell>
        <mxCell id="nDwCT-81fd5Fx0zlanSL-58" value="" style="edgeStyle=elbowEdgeStyle;fontSize=12;html=1;endArrow=blockThin;endFill=1;rounded=0;exitX=0.5;exitY=0;exitDx=0;exitDy=0;exitPerimeter=0;entryX=0.5;entryY=0;entryDx=0;entryDy=0;entryPerimeter=0;" edge="1" parent="nDwCT-81fd5Fx0zlanSL-9" source="nDwCT-81fd5Fx0zlanSL-40" target="nDwCT-81fd5Fx0zlanSL-59">
          <mxGeometry width="160" relative="1" as="geometry">
            <mxPoint x="677" y="39" as="sourcePoint" />
            <mxPoint x="837" y="39" as="targetPoint" />
            <Array as="points">
              <mxPoint x="667" y="52" />
            </Array>
          </mxGeometry>
        </mxCell>
        <mxCell id="nDwCT-81fd5Fx0zlanSL-60" value="Нет" style="edgeLabel;html=1;align=center;verticalAlign=middle;resizable=0;points=[];" vertex="1" connectable="0" parent="nDwCT-81fd5Fx0zlanSL-58">
          <mxGeometry x="-0.6878" relative="1" as="geometry">
            <mxPoint as="offset" />
          </mxGeometry>
        </mxCell>
        <mxCell id="nDwCT-81fd5Fx0zlanSL-59" value="Добавить интересующий товар в корзину" style="points=[[0.25,0,0],[0.5,0,0],[0.75,0,0],[1,0.25,0],[1,0.5,0],[1,0.75,0],[0.75,1,0],[0.5,1,0],[0.25,1,0],[0,0.75,0],[0,0.5,0],[0,0.25,0]];shape=mxgraph.bpmn.task;whiteSpace=wrap;rectStyle=rounded;size=10;html=1;container=1;expand=0;collapsible=0;taskMarker=user;" vertex="1" parent="nDwCT-81fd5Fx0zlanSL-9">
          <mxGeometry x="867" y="64.37" width="96" height="54" as="geometry" />
        </mxCell>
        <mxCell id="nDwCT-81fd5Fx0zlanSL-64" value="Перейти в корзину" style="points=[[0.25,0,0],[0.5,0,0],[0.75,0,0],[1,0.25,0],[1,0.5,0],[1,0.75,0],[0.75,1,0],[0.5,1,0],[0.25,1,0],[0,0.75,0],[0,0.5,0],[0,0.25,0]];shape=mxgraph.bpmn.task;whiteSpace=wrap;rectStyle=rounded;size=10;html=1;container=1;expand=0;collapsible=0;taskMarker=user;" vertex="1" parent="nDwCT-81fd5Fx0zlanSL-9">
          <mxGeometry x="1026" y="62" width="96" height="53" as="geometry" />
        </mxCell>
        <mxCell id="nDwCT-81fd5Fx0zlanSL-75" value="" style="points=[[0.25,0.25,0],[0.5,0,0],[0.75,0.25,0],[1,0.5,0],[0.75,0.75,0],[0.5,1,0],[0.25,0.75,0],[0,0.5,0]];shape=mxgraph.bpmn.gateway2;html=1;verticalLabelPosition=bottom;labelBackgroundColor=#ffffff;verticalAlign=top;align=center;perimeter=rhombusPerimeter;outlineConnect=0;outline=none;symbol=none;gwType=exclusive;" vertex="1" parent="nDwCT-81fd5Fx0zlanSL-9">
          <mxGeometry x="1195" y="65" width="40" height="35" as="geometry" />
        </mxCell>
        <mxCell id="nDwCT-81fd5Fx0zlanSL-77" value="Удалить товар&amp;nbsp;&lt;div&gt;из корзины?&lt;/div&gt;" style="text;html=1;align=center;verticalAlign=middle;resizable=0;points=[];autosize=1;strokeColor=none;fillColor=none;" vertex="1" parent="nDwCT-81fd5Fx0zlanSL-9">
          <mxGeometry x="1171" y="126" width="102" height="41" as="geometry" />
        </mxCell>
        <mxCell id="nDwCT-81fd5Fx0zlanSL-78" value="" style="edgeStyle=orthogonalEdgeStyle;fontSize=12;html=1;endArrow=blockThin;endFill=1;rounded=0;exitX=0.5;exitY=0;exitDx=0;exitDy=0;exitPerimeter=0;elbow=vertical;entryX=0.5;entryY=0;entryDx=0;entryDy=0;entryPerimeter=0;" edge="1" parent="nDwCT-81fd5Fx0zlanSL-9" source="nDwCT-81fd5Fx0zlanSL-75" target="nDwCT-81fd5Fx0zlanSL-90">
          <mxGeometry width="160" relative="1" as="geometry">
            <mxPoint x="1247" y="45" as="sourcePoint" />
            <mxPoint x="1215" y="13" as="targetPoint" />
            <Array as="points">
              <mxPoint x="1215" y="33" />
              <mxPoint x="1683" y="33" />
            </Array>
          </mxGeometry>
        </mxCell>
        <mxCell id="nDwCT-81fd5Fx0zlanSL-92" value="Нет" style="edgeLabel;html=1;align=center;verticalAlign=middle;resizable=0;points=[];" vertex="1" connectable="0" parent="nDwCT-81fd5Fx0zlanSL-78">
          <mxGeometry x="-0.9159" y="-1" relative="1" as="geometry">
            <mxPoint as="offset" />
          </mxGeometry>
        </mxCell>
        <mxCell id="nDwCT-81fd5Fx0zlanSL-81" value="" style="points=[[0.25,0.25,0],[0.5,0,0],[0.75,0.25,0],[1,0.5,0],[0.75,0.75,0],[0.5,1,0],[0.25,0.75,0],[0,0.5,0]];shape=mxgraph.bpmn.gateway2;html=1;verticalLabelPosition=bottom;labelBackgroundColor=#ffffff;verticalAlign=top;align=center;perimeter=rhombusPerimeter;outlineConnect=0;outline=none;symbol=none;gwType=exclusive;" vertex="1" parent="nDwCT-81fd5Fx0zlanSL-9">
          <mxGeometry x="1473" y="77" width="51" height="42" as="geometry" />
        </mxCell>
        <mxCell id="nDwCT-81fd5Fx0zlanSL-85" value="Удалить все&lt;div&gt;товары из&lt;/div&gt;&lt;div&gt;корзины?&lt;/div&gt;" style="text;html=1;align=center;verticalAlign=middle;resizable=0;points=[];autosize=1;strokeColor=none;fillColor=none;" vertex="1" parent="nDwCT-81fd5Fx0zlanSL-9">
          <mxGeometry x="1422" y="131" width="86" height="55" as="geometry" />
        </mxCell>
        <mxCell id="nDwCT-81fd5Fx0zlanSL-86" value="Перейти к оформлению заказа" style="points=[[0.25,0,0],[0.5,0,0],[0.75,0,0],[1,0.25,0],[1,0.5,0],[1,0.75,0],[0.75,1,0],[0.5,1,0],[0.25,1,0],[0,0.75,0],[0,0.5,0],[0,0.25,0]];shape=mxgraph.bpmn.task;whiteSpace=wrap;rectStyle=rounded;size=10;html=1;container=1;expand=0;collapsible=0;taskMarker=user;" vertex="1" parent="nDwCT-81fd5Fx0zlanSL-9">
          <mxGeometry x="1770" y="61.5" width="99" height="56" as="geometry" />
        </mxCell>
        <mxCell id="nDwCT-81fd5Fx0zlanSL-90" value="Выбрать подходящие условия заказа" style="points=[[0.25,0,0],[0.5,0,0],[0.75,0,0],[1,0.25,0],[1,0.5,0],[1,0.75,0],[0.75,1,0],[0.5,1,0],[0.25,1,0],[0,0.75,0],[0,0.5,0],[0,0.25,0]];shape=mxgraph.bpmn.task;whiteSpace=wrap;rectStyle=rounded;size=10;html=1;container=1;expand=0;collapsible=0;taskMarker=user;" vertex="1" parent="nDwCT-81fd5Fx0zlanSL-9">
          <mxGeometry x="1630" y="60" width="107" height="59" as="geometry" />
        </mxCell>
        <mxCell id="nDwCT-81fd5Fx0zlanSL-100" value="" style="edgeStyle=elbowEdgeStyle;fontSize=12;html=1;endArrow=blockThin;endFill=1;rounded=0;exitX=1;exitY=0.5;exitDx=0;exitDy=0;exitPerimeter=0;entryX=0;entryY=0.5;entryDx=0;entryDy=0;entryPerimeter=0;" edge="1" parent="nDwCT-81fd5Fx0zlanSL-9" source="nDwCT-81fd5Fx0zlanSL-90" target="nDwCT-81fd5Fx0zlanSL-86">
          <mxGeometry width="160" relative="1" as="geometry">
            <mxPoint x="1743" y="151" as="sourcePoint" />
            <mxPoint x="1903" y="151" as="targetPoint" />
          </mxGeometry>
        </mxCell>
        <mxCell id="nDwCT-81fd5Fx0zlanSL-103" value="" style="edgeStyle=orthogonalEdgeStyle;fontSize=12;html=1;endArrow=blockThin;endFill=1;rounded=0;exitX=0.5;exitY=0;exitDx=0;exitDy=0;exitPerimeter=0;entryX=0.25;entryY=0;entryDx=0;entryDy=0;entryPerimeter=0;" edge="1" parent="nDwCT-81fd5Fx0zlanSL-9" source="nDwCT-81fd5Fx0zlanSL-81" target="nDwCT-81fd5Fx0zlanSL-90">
          <mxGeometry width="160" relative="1" as="geometry">
            <mxPoint x="1528" y="152" as="sourcePoint" />
            <mxPoint x="1688" y="152" as="targetPoint" />
          </mxGeometry>
        </mxCell>
        <mxCell id="nDwCT-81fd5Fx0zlanSL-104" value="Нет" style="edgeLabel;html=1;align=center;verticalAlign=middle;resizable=0;points=[];" vertex="1" connectable="0" parent="nDwCT-81fd5Fx0zlanSL-103">
          <mxGeometry x="-0.8065" y="-3" relative="1" as="geometry">
            <mxPoint as="offset" />
          </mxGeometry>
        </mxCell>
        <mxCell id="nDwCT-81fd5Fx0zlanSL-84" value="" style="edgeStyle=elbowEdgeStyle;fontSize=12;html=1;endArrow=blockThin;endFill=1;rounded=0;exitX=1;exitY=0.25;exitDx=0;exitDy=0;exitPerimeter=0;entryX=0.5;entryY=1;entryDx=0;entryDy=0;entryPerimeter=0;" edge="1" parent="nDwCT-81fd5Fx0zlanSL-8" source="nDwCT-81fd5Fx0zlanSL-80" target="nDwCT-81fd5Fx0zlanSL-81">
          <mxGeometry width="160" relative="1" as="geometry">
            <mxPoint x="1520" y="241" as="sourcePoint" />
            <mxPoint x="1680" y="241" as="targetPoint" />
            <Array as="points">
              <mxPoint x="1535" y="186" />
            </Array>
          </mxGeometry>
        </mxCell>
        <mxCell id="nDwCT-81fd5Fx0zlanSL-95" value="" style="edgeStyle=elbowEdgeStyle;fontSize=12;html=1;endArrow=blockThin;endFill=1;rounded=0;exitX=0.5;exitY=1;exitDx=0;exitDy=0;exitPerimeter=0;entryX=0.5;entryY=0;entryDx=0;entryDy=0;entryPerimeter=0;" edge="1" parent="nDwCT-81fd5Fx0zlanSL-8" source="nDwCT-81fd5Fx0zlanSL-90" target="nDwCT-81fd5Fx0zlanSL-94">
          <mxGeometry width="160" relative="1" as="geometry">
            <mxPoint x="1723" y="160" as="sourcePoint" />
            <mxPoint x="1883" y="160" as="targetPoint" />
          </mxGeometry>
        </mxCell>
        <mxCell id="nDwCT-81fd5Fx0zlanSL-101" value="" style="edgeStyle=elbowEdgeStyle;fontSize=12;html=1;endArrow=blockThin;endFill=1;rounded=0;exitX=0.5;exitY=1;exitDx=0;exitDy=0;exitPerimeter=0;entryX=0.5;entryY=0;entryDx=0;entryDy=0;entryPerimeter=0;" edge="1" parent="nDwCT-81fd5Fx0zlanSL-8" source="nDwCT-81fd5Fx0zlanSL-86" target="nDwCT-81fd5Fx0zlanSL-93">
          <mxGeometry width="160" relative="1" as="geometry">
            <mxPoint x="1878" y="170" as="sourcePoint" />
            <mxPoint x="2038" y="170" as="targetPoint" />
          </mxGeometry>
        </mxCell>
        <mxCell id="nDwCT-81fd5Fx0zlanSL-105" value="" style="edgeStyle=orthogonalEdgeStyle;fontSize=12;html=1;endArrow=blockThin;endFill=1;rounded=0;exitX=1;exitY=0.5;exitDx=0;exitDy=0;exitPerimeter=0;entryX=0.5;entryY=0;entryDx=0;entryDy=0;entryPerimeter=0;" edge="1" parent="nDwCT-81fd5Fx0zlanSL-8" source="nDwCT-81fd5Fx0zlanSL-81" target="nDwCT-81fd5Fx0zlanSL-107">
          <mxGeometry width="160" relative="1" as="geometry">
            <mxPoint x="1562" y="113" as="sourcePoint" />
            <mxPoint x="1598" y="217" as="targetPoint" />
          </mxGeometry>
        </mxCell>
        <mxCell id="nDwCT-81fd5Fx0zlanSL-106" value="Да" style="edgeLabel;html=1;align=center;verticalAlign=middle;resizable=0;points=[];" vertex="1" connectable="0" parent="nDwCT-81fd5Fx0zlanSL-105">
          <mxGeometry x="-0.7528" y="-4" relative="1" as="geometry">
            <mxPoint x="-1" as="offset" />
          </mxGeometry>
        </mxCell>
        <mxCell id="nDwCT-81fd5Fx0zlanSL-10" value="Система" style="swimlane;html=1;startSize=20;horizontal=0;" vertex="1" parent="nDwCT-81fd5Fx0zlanSL-8">
          <mxGeometry x="36" y="194" width="2027" height="185" as="geometry" />
        </mxCell>
        <mxCell id="nDwCT-81fd5Fx0zlanSL-20" value="" style="points=[[0.25,0.25,0],[0.5,0,0],[0.75,0.25,0],[1,0.5,0],[0.75,0.75,0],[0.5,1,0],[0.25,0.75,0],[0,0.5,0]];shape=mxgraph.bpmn.gateway2;html=1;verticalLabelPosition=bottom;labelBackgroundColor=#ffffff;verticalAlign=top;align=center;perimeter=rhombusPerimeter;outlineConnect=0;outline=none;symbol=none;gwType=exclusive;" vertex="1" parent="nDwCT-81fd5Fx0zlanSL-10">
          <mxGeometry x="141.5" y="11" width="34" height="32" as="geometry" />
        </mxCell>
        <mxCell id="nDwCT-81fd5Fx0zlanSL-23" value="" style="edgeStyle=elbowEdgeStyle;fontSize=12;html=1;endArrow=blockThin;endFill=1;rounded=0;exitX=0;exitY=0.5;exitDx=0;exitDy=0;exitPerimeter=0;entryX=0.5;entryY=0;entryDx=0;entryDy=0;entryPerimeter=0;" edge="1" parent="nDwCT-81fd5Fx0zlanSL-10" source="nDwCT-81fd5Fx0zlanSL-20" target="nDwCT-81fd5Fx0zlanSL-24">
          <mxGeometry width="160" relative="1" as="geometry">
            <mxPoint x="139" y="82" as="sourcePoint" />
            <mxPoint x="96" y="52" as="targetPoint" />
            <Array as="points">
              <mxPoint x="84" y="47" />
            </Array>
          </mxGeometry>
        </mxCell>
        <mxCell id="nDwCT-81fd5Fx0zlanSL-26" value="Нет" style="edgeLabel;html=1;align=center;verticalAlign=middle;resizable=0;points=[];" vertex="1" connectable="0" parent="nDwCT-81fd5Fx0zlanSL-23">
          <mxGeometry x="-0.1719" relative="1" as="geometry">
            <mxPoint x="-1" as="offset" />
          </mxGeometry>
        </mxCell>
        <mxCell id="nDwCT-81fd5Fx0zlanSL-24" value="Сообщить об отсутствии акций" style="points=[[0.25,0,0],[0.5,0,0],[0.75,0,0],[1,0.25,0],[1,0.5,0],[1,0.75,0],[0.75,1,0],[0.5,1,0],[0.25,1,0],[0,0.75,0],[0,0.5,0],[0,0.25,0]];shape=mxgraph.bpmn.task;whiteSpace=wrap;rectStyle=rounded;size=10;html=1;container=1;expand=0;collapsible=0;taskMarker=abstract;" vertex="1" parent="nDwCT-81fd5Fx0zlanSL-10">
          <mxGeometry x="35" y="54" width="98" height="52" as="geometry" />
        </mxCell>
        <mxCell id="nDwCT-81fd5Fx0zlanSL-14" value="" style="points=[[0.145,0.145,0],[0.5,0,0],[0.855,0.145,0],[1,0.5,0],[0.855,0.855,0],[0.5,1,0],[0.145,0.855,0],[0,0.5,0]];shape=mxgraph.bpmn.event;html=1;verticalLabelPosition=bottom;labelBackgroundColor=#ffffff;verticalAlign=top;align=center;perimeter=ellipsePerimeter;outlineConnect=0;aspect=fixed;outline=end;symbol=error;" vertex="1" parent="nDwCT-81fd5Fx0zlanSL-10">
          <mxGeometry x="68.5" y="136" width="31" height="31" as="geometry" />
        </mxCell>
        <mxCell id="nDwCT-81fd5Fx0zlanSL-25" value="" style="edgeStyle=elbowEdgeStyle;fontSize=12;html=1;endArrow=blockThin;endFill=1;rounded=0;exitX=0.5;exitY=1;exitDx=0;exitDy=0;exitPerimeter=0;entryX=0.5;entryY=0;entryDx=0;entryDy=0;entryPerimeter=0;" edge="1" parent="nDwCT-81fd5Fx0zlanSL-10" source="nDwCT-81fd5Fx0zlanSL-24" target="nDwCT-81fd5Fx0zlanSL-14">
          <mxGeometry width="160" relative="1" as="geometry">
            <mxPoint x="140" y="113" as="sourcePoint" />
            <mxPoint x="300" y="113" as="targetPoint" />
          </mxGeometry>
        </mxCell>
        <mxCell id="nDwCT-81fd5Fx0zlanSL-27" value="" style="edgeStyle=elbowEdgeStyle;fontSize=12;html=1;endArrow=blockThin;endFill=1;rounded=0;exitX=1;exitY=0.5;exitDx=0;exitDy=0;exitPerimeter=0;entryX=0.5;entryY=0;entryDx=0;entryDy=0;entryPerimeter=0;" edge="1" parent="nDwCT-81fd5Fx0zlanSL-10" source="nDwCT-81fd5Fx0zlanSL-20" target="nDwCT-81fd5Fx0zlanSL-28">
          <mxGeometry width="160" relative="1" as="geometry">
            <mxPoint x="202" y="32" as="sourcePoint" />
            <mxPoint x="362" y="32" as="targetPoint" />
            <Array as="points">
              <mxPoint x="216" y="36" />
            </Array>
          </mxGeometry>
        </mxCell>
        <mxCell id="nDwCT-81fd5Fx0zlanSL-39" value="Да" style="edgeLabel;html=1;align=center;verticalAlign=middle;resizable=0;points=[];" vertex="1" connectable="0" parent="nDwCT-81fd5Fx0zlanSL-27">
          <mxGeometry x="-0.4728" y="-2" relative="1" as="geometry">
            <mxPoint as="offset" />
          </mxGeometry>
        </mxCell>
        <mxCell id="nDwCT-81fd5Fx0zlanSL-28" value="Отобразить форму лучших акций" style="points=[[0.25,0,0],[0.5,0,0],[0.75,0,0],[1,0.25,0],[1,0.5,0],[1,0.75,0],[0.75,1,0],[0.5,1,0],[0.25,1,0],[0,0.75,0],[0,0.5,0],[0,0.25,0]];shape=mxgraph.bpmn.task;whiteSpace=wrap;rectStyle=rounded;size=10;html=1;container=1;expand=0;collapsible=0;taskMarker=abstract;" vertex="1" parent="nDwCT-81fd5Fx0zlanSL-10">
          <mxGeometry x="171" y="54" width="90" height="46" as="geometry" />
        </mxCell>
        <mxCell id="nDwCT-81fd5Fx0zlanSL-31" value="Отобразить категории и подкатегории акционных товаров" style="points=[[0.25,0,0],[0.5,0,0],[0.75,0,0],[1,0.25,0],[1,0.5,0],[1,0.75,0],[0.75,1,0],[0.5,1,0],[0.25,1,0],[0,0.75,0],[0,0.5,0],[0,0.25,0]];shape=mxgraph.bpmn.task;whiteSpace=wrap;rectStyle=rounded;size=10;html=1;container=1;expand=0;collapsible=0;taskMarker=abstract;" vertex="1" parent="nDwCT-81fd5Fx0zlanSL-10">
          <mxGeometry x="318" y="51" width="120" height="58" as="geometry" />
        </mxCell>
        <mxCell id="nDwCT-81fd5Fx0zlanSL-37" value="Отобразить список акционных товаров с возможностью фильтрации" style="points=[[0.25,0,0],[0.5,0,0],[0.75,0,0],[1,0.25,0],[1,0.5,0],[1,0.75,0],[0.75,1,0],[0.5,1,0],[0.25,1,0],[0,0.75,0],[0,0.5,0],[0,0.25,0]];shape=mxgraph.bpmn.task;whiteSpace=wrap;rectStyle=rounded;size=10;html=1;container=1;expand=0;collapsible=0;taskMarker=abstract;" vertex="1" parent="nDwCT-81fd5Fx0zlanSL-10">
          <mxGeometry x="483" y="50" width="127" height="60" as="geometry" />
        </mxCell>
        <mxCell id="nDwCT-81fd5Fx0zlanSL-50" value="" style="points=[[0.25,0.25,0],[0.5,0,0],[0.75,0.25,0],[1,0.5,0],[0.75,0.75,0],[0.5,1,0],[0.25,0.75,0],[0,0.5,0]];shape=mxgraph.bpmn.gateway2;html=1;verticalLabelPosition=bottom;labelBackgroundColor=#ffffff;verticalAlign=top;align=center;perimeter=rhombusPerimeter;outlineConnect=0;outline=none;symbol=none;gwType=exclusive;" vertex="1" parent="nDwCT-81fd5Fx0zlanSL-10">
          <mxGeometry x="738" y="19" width="39" height="38" as="geometry" />
        </mxCell>
        <mxCell id="nDwCT-81fd5Fx0zlanSL-51" value="Сообщить об отсутствии фильтрованных товаров" style="points=[[0.25,0,0],[0.5,0,0],[0.75,0,0],[1,0.25,0],[1,0.5,0],[1,0.75,0],[0.75,1,0],[0.5,1,0],[0.25,1,0],[0,0.75,0],[0,0.5,0],[0,0.25,0]];shape=mxgraph.bpmn.task;whiteSpace=wrap;rectStyle=rounded;size=10;html=1;container=1;expand=0;collapsible=0;taskMarker=abstract;" vertex="1" parent="nDwCT-81fd5Fx0zlanSL-10">
          <mxGeometry x="633" y="62" width="105" height="54" as="geometry" />
        </mxCell>
        <mxCell id="nDwCT-81fd5Fx0zlanSL-52" value="" style="edgeStyle=elbowEdgeStyle;fontSize=12;html=1;endArrow=blockThin;endFill=1;rounded=0;entryX=0.5;entryY=0;entryDx=0;entryDy=0;entryPerimeter=0;exitX=0;exitY=0.5;exitDx=0;exitDy=0;exitPerimeter=0;" edge="1" parent="nDwCT-81fd5Fx0zlanSL-10" source="nDwCT-81fd5Fx0zlanSL-50" target="nDwCT-81fd5Fx0zlanSL-51">
          <mxGeometry width="160" relative="1" as="geometry">
            <mxPoint x="676" y="37" as="sourcePoint" />
            <mxPoint x="836" y="37" as="targetPoint" />
            <Array as="points">
              <mxPoint x="686" y="42" />
            </Array>
          </mxGeometry>
        </mxCell>
        <mxCell id="nDwCT-81fd5Fx0zlanSL-53" value="Нет" style="edgeLabel;html=1;align=center;verticalAlign=middle;resizable=0;points=[];" vertex="1" connectable="0" parent="nDwCT-81fd5Fx0zlanSL-52">
          <mxGeometry x="-0.4543" relative="1" as="geometry">
            <mxPoint as="offset" />
          </mxGeometry>
        </mxCell>
        <mxCell id="nDwCT-81fd5Fx0zlanSL-49" value="Есть ли&amp;nbsp;&lt;div&gt;товары&amp;nbsp;&lt;span style=&quot;background-color: initial;&quot;&gt;согласно&amp;nbsp;&lt;/span&gt;&lt;/div&gt;&lt;div&gt;&lt;span style=&quot;background-color: initial;&quot;&gt;фильтру?&lt;/span&gt;&lt;/div&gt;" style="text;html=1;align=center;verticalAlign=middle;resizable=0;points=[];autosize=1;strokeColor=none;fillColor=none;" vertex="1" parent="nDwCT-81fd5Fx0zlanSL-10">
          <mxGeometry x="652" y="-22" width="115" height="55" as="geometry" />
        </mxCell>
        <mxCell id="nDwCT-81fd5Fx0zlanSL-54" value="Отобразить товары согласно заполненному фильтру" style="points=[[0.25,0,0],[0.5,0,0],[0.75,0,0],[1,0.25,0],[1,0.5,0],[1,0.75,0],[0.75,1,0],[0.5,1,0],[0.25,1,0],[0,0.75,0],[0,0.5,0],[0,0.25,0]];shape=mxgraph.bpmn.task;whiteSpace=wrap;rectStyle=rounded;size=10;html=1;container=1;expand=0;collapsible=0;taskMarker=abstract;" vertex="1" parent="nDwCT-81fd5Fx0zlanSL-10">
          <mxGeometry x="775" y="61.75" width="102" height="61.5" as="geometry" />
        </mxCell>
        <mxCell id="nDwCT-81fd5Fx0zlanSL-55" value="" style="edgeStyle=elbowEdgeStyle;fontSize=12;html=1;endArrow=blockThin;endFill=1;rounded=0;exitX=1;exitY=0.5;exitDx=0;exitDy=0;exitPerimeter=0;entryX=0.5;entryY=0;entryDx=0;entryDy=0;entryPerimeter=0;" edge="1" parent="nDwCT-81fd5Fx0zlanSL-10" source="nDwCT-81fd5Fx0zlanSL-50" target="nDwCT-81fd5Fx0zlanSL-54">
          <mxGeometry width="160" relative="1" as="geometry">
            <mxPoint x="813" y="36" as="sourcePoint" />
            <mxPoint x="973" y="36" as="targetPoint" />
            <Array as="points">
              <mxPoint x="826" y="45" />
            </Array>
          </mxGeometry>
        </mxCell>
        <mxCell id="nDwCT-81fd5Fx0zlanSL-56" value="" style="edgeStyle=elbowEdgeStyle;fontSize=12;html=1;endArrow=blockThin;endFill=1;rounded=0;exitX=0.5;exitY=1;exitDx=0;exitDy=0;exitPerimeter=0;entryX=0.5;entryY=0;entryDx=0;entryDy=0;entryPerimeter=0;" edge="1" parent="nDwCT-81fd5Fx0zlanSL-10" source="nDwCT-81fd5Fx0zlanSL-51" target="nDwCT-81fd5Fx0zlanSL-57">
          <mxGeometry width="160" relative="1" as="geometry">
            <mxPoint x="671" y="132" as="sourcePoint" />
            <mxPoint x="686" y="150" as="targetPoint" />
          </mxGeometry>
        </mxCell>
        <mxCell id="nDwCT-81fd5Fx0zlanSL-57" value="" style="points=[[0.145,0.145,0],[0.5,0,0],[0.855,0.145,0],[1,0.5,0],[0.855,0.855,0],[0.5,1,0],[0.145,0.855,0],[0,0.5,0]];shape=mxgraph.bpmn.event;html=1;verticalLabelPosition=bottom;labelBackgroundColor=#ffffff;verticalAlign=top;align=center;perimeter=ellipsePerimeter;outlineConnect=0;aspect=fixed;outline=end;symbol=error;" vertex="1" parent="nDwCT-81fd5Fx0zlanSL-10">
          <mxGeometry x="670" y="138" width="31" height="31" as="geometry" />
        </mxCell>
        <mxCell id="nDwCT-81fd5Fx0zlanSL-62" value="Отобразить счётчик корзины" style="points=[[0.25,0,0],[0.5,0,0],[0.75,0,0],[1,0.25,0],[1,0.5,0],[1,0.75,0],[0.75,1,0],[0.5,1,0],[0.25,1,0],[0,0.75,0],[0,0.5,0],[0,0.25,0]];shape=mxgraph.bpmn.task;whiteSpace=wrap;rectStyle=rounded;size=10;html=1;container=1;expand=0;collapsible=0;taskMarker=abstract;" vertex="1" parent="nDwCT-81fd5Fx0zlanSL-10">
          <mxGeometry x="951" y="50" width="98" height="53" as="geometry" />
        </mxCell>
        <mxCell id="nDwCT-81fd5Fx0zlanSL-67" value="Отобразить корзину" style="points=[[0.25,0,0],[0.5,0,0],[0.75,0,0],[1,0.25,0],[1,0.5,0],[1,0.75,0],[0.75,1,0],[0.5,1,0],[0.25,1,0],[0,0.75,0],[0,0.5,0],[0,0.25,0]];shape=mxgraph.bpmn.task;whiteSpace=wrap;rectStyle=rounded;size=10;html=1;container=1;expand=0;collapsible=0;taskMarker=abstract;" vertex="1" parent="nDwCT-81fd5Fx0zlanSL-10">
          <mxGeometry x="1087" y="49" width="84" height="49" as="geometry" />
        </mxCell>
        <mxCell id="nDwCT-81fd5Fx0zlanSL-68" value="Отобразить возможность удалить товар" style="points=[[0.25,0,0],[0.5,0,0],[0.75,0,0],[1,0.25,0],[1,0.5,0],[1,0.75,0],[0.75,1,0],[0.5,1,0],[0.25,1,0],[0,0.75,0],[0,0.5,0],[0,0.25,0]];shape=mxgraph.bpmn.task;whiteSpace=wrap;rectStyle=rounded;size=10;html=1;container=1;expand=0;collapsible=0;taskMarker=abstract;" vertex="1" parent="nDwCT-81fd5Fx0zlanSL-10">
          <mxGeometry x="1224" y="11" width="94" height="46" as="geometry" />
        </mxCell>
        <mxCell id="nDwCT-81fd5Fx0zlanSL-69" value="Отобразить возможность выбора способа доставки" style="points=[[0.25,0,0],[0.5,0,0],[0.75,0,0],[1,0.25,0],[1,0.5,0],[1,0.75,0],[0.75,1,0],[0.5,1,0],[0.25,1,0],[0,0.75,0],[0,0.5,0],[0,0.25,0]];shape=mxgraph.bpmn.task;whiteSpace=wrap;rectStyle=rounded;size=10;html=1;container=1;expand=0;collapsible=0;taskMarker=abstract;" vertex="1" parent="nDwCT-81fd5Fx0zlanSL-10">
          <mxGeometry x="1221" y="64" width="123" height="55" as="geometry" />
        </mxCell>
        <mxCell id="nDwCT-81fd5Fx0zlanSL-70" value="Отобразить возможность выбора способа оплаты" style="points=[[0.25,0,0],[0.5,0,0],[0.75,0,0],[1,0.25,0],[1,0.5,0],[1,0.75,0],[0.75,1,0],[0.5,1,0],[0.25,1,0],[0,0.75,0],[0,0.5,0],[0,0.25,0]];shape=mxgraph.bpmn.task;whiteSpace=wrap;rectStyle=rounded;size=10;html=1;container=1;expand=0;collapsible=0;taskMarker=abstract;" vertex="1" parent="nDwCT-81fd5Fx0zlanSL-10">
          <mxGeometry x="1221" y="126" width="123" height="55" as="geometry" />
        </mxCell>
        <mxCell id="nDwCT-81fd5Fx0zlanSL-80" value="Подтвердить удаление" style="points=[[0.25,0,0],[0.5,0,0],[0.75,0,0],[1,0.25,0],[1,0.5,0],[1,0.75,0],[0.75,1,0],[0.5,1,0],[0.25,1,0],[0,0.75,0],[0,0.5,0],[0,0.25,0]];shape=mxgraph.bpmn.task;whiteSpace=wrap;rectStyle=rounded;size=10;html=1;container=1;expand=0;collapsible=0;taskMarker=abstract;" vertex="1" parent="nDwCT-81fd5Fx0zlanSL-10">
          <mxGeometry x="1386" y="50" width="81" height="48" as="geometry" />
        </mxCell>
        <mxCell id="nDwCT-81fd5Fx0zlanSL-93" value="Одобрить переход к оформлению заказа" style="points=[[0.25,0,0],[0.5,0,0],[0.75,0,0],[1,0.25,0],[1,0.5,0],[1,0.75,0],[0.75,1,0],[0.5,1,0],[0.25,1,0],[0,0.75,0],[0,0.5,0],[0,0.25,0]];shape=mxgraph.bpmn.task;whiteSpace=wrap;rectStyle=rounded;size=10;html=1;container=1;expand=0;collapsible=0;taskMarker=abstract;" vertex="1" parent="nDwCT-81fd5Fx0zlanSL-10">
          <mxGeometry x="1769" y="44" width="100" height="59" as="geometry" />
        </mxCell>
        <mxCell id="nDwCT-81fd5Fx0zlanSL-94" value="Сохранить заказ" style="points=[[0.25,0,0],[0.5,0,0],[0.75,0,0],[1,0.25,0],[1,0.5,0],[1,0.75,0],[0.75,1,0],[0.5,1,0],[0.25,1,0],[0,0.75,0],[0,0.5,0],[0,0.25,0]];shape=mxgraph.bpmn.task;whiteSpace=wrap;rectStyle=rounded;size=10;html=1;container=1;expand=0;collapsible=0;taskMarker=abstract;" vertex="1" parent="nDwCT-81fd5Fx0zlanSL-10">
          <mxGeometry x="1635.5" y="47.5" width="96" height="59" as="geometry" />
        </mxCell>
        <mxCell id="nDwCT-81fd5Fx0zlanSL-87" value="" style="points=[[0.145,0.145,0],[0.5,0,0],[0.855,0.145,0],[1,0.5,0],[0.855,0.855,0],[0.5,1,0],[0.145,0.855,0],[0,0.5,0]];shape=mxgraph.bpmn.event;html=1;verticalLabelPosition=bottom;labelBackgroundColor=#ffffff;verticalAlign=top;align=center;perimeter=ellipsePerimeter;outlineConnect=0;aspect=fixed;outline=end;symbol=terminate2;" vertex="1" parent="nDwCT-81fd5Fx0zlanSL-10">
          <mxGeometry x="1926" y="54.5" width="38" height="38" as="geometry" />
        </mxCell>
        <mxCell id="nDwCT-81fd5Fx0zlanSL-89" value="Покупатель оформил заказ,&amp;nbsp;&lt;div&gt;в системе создан заказ&amp;nbsp;&lt;/div&gt;&lt;div&gt;покупателя&lt;/div&gt;" style="text;html=1;align=center;verticalAlign=middle;resizable=0;points=[];autosize=1;strokeColor=none;fillColor=none;" vertex="1" parent="nDwCT-81fd5Fx0zlanSL-10">
          <mxGeometry x="1856.5" y="2" width="177" height="55" as="geometry" />
        </mxCell>
        <mxCell id="nDwCT-81fd5Fx0zlanSL-102" value="" style="edgeStyle=elbowEdgeStyle;fontSize=12;html=1;endArrow=blockThin;endFill=1;rounded=0;exitX=1;exitY=0.5;exitDx=0;exitDy=0;exitPerimeter=0;entryX=0;entryY=0.5;entryDx=0;entryDy=0;entryPerimeter=0;" edge="1" parent="nDwCT-81fd5Fx0zlanSL-10" source="nDwCT-81fd5Fx0zlanSL-93" target="nDwCT-81fd5Fx0zlanSL-87">
          <mxGeometry width="160" relative="1" as="geometry">
            <mxPoint x="1903" y="77" as="sourcePoint" />
            <mxPoint x="1968" y="73" as="targetPoint" />
          </mxGeometry>
        </mxCell>
        <mxCell id="nDwCT-81fd5Fx0zlanSL-107" value="Заблокировать возможность оформить заказ" style="points=[[0.25,0,0],[0.5,0,0],[0.75,0,0],[1,0.25,0],[1,0.5,0],[1,0.75,0],[0.75,1,0],[0.5,1,0],[0.25,1,0],[0,0.75,0],[0,0.5,0],[0,0.25,0]];shape=mxgraph.bpmn.task;whiteSpace=wrap;rectStyle=rounded;size=10;html=1;container=1;expand=0;collapsible=0;taskMarker=abstract;" vertex="1" parent="nDwCT-81fd5Fx0zlanSL-10">
          <mxGeometry x="1510" y="49" width="105" height="52" as="geometry" />
        </mxCell>
        <mxCell id="nDwCT-81fd5Fx0zlanSL-108" value="" style="points=[[0.145,0.145,0],[0.5,0,0],[0.855,0.145,0],[1,0.5,0],[0.855,0.855,0],[0.5,1,0],[0.145,0.855,0],[0,0.5,0]];shape=mxgraph.bpmn.event;html=1;verticalLabelPosition=bottom;labelBackgroundColor=#ffffff;verticalAlign=top;align=center;perimeter=ellipsePerimeter;outlineConnect=0;aspect=fixed;outline=end;symbol=error;" vertex="1" parent="nDwCT-81fd5Fx0zlanSL-10">
          <mxGeometry x="1547" y="138" width="31" height="31" as="geometry" />
        </mxCell>
        <mxCell id="nDwCT-81fd5Fx0zlanSL-109" value="" style="edgeStyle=elbowEdgeStyle;fontSize=12;html=1;endArrow=blockThin;endFill=1;rounded=0;exitX=0.5;exitY=1;exitDx=0;exitDy=0;exitPerimeter=0;entryX=0.5;entryY=0;entryDx=0;entryDy=0;entryPerimeter=0;" edge="1" parent="nDwCT-81fd5Fx0zlanSL-10" source="nDwCT-81fd5Fx0zlanSL-107" target="nDwCT-81fd5Fx0zlanSL-108">
          <mxGeometry width="160" relative="1" as="geometry">
            <mxPoint x="1579" y="123" as="sourcePoint" />
            <mxPoint x="1739" y="123" as="targetPoint" />
          </mxGeometry>
        </mxCell>
        <mxCell id="nDwCT-81fd5Fx0zlanSL-110" value="" style="edgeStyle=elbowEdgeStyle;fontSize=12;html=1;endArrow=blockThin;endFill=1;startArrow=diamondThin;startFill=0;endSize=6;startSize=10;rounded=0;exitX=1;exitY=0.25;exitDx=0;exitDy=0;exitPerimeter=0;entryX=0;entryY=0.5;entryDx=0;entryDy=0;entryPerimeter=0;" edge="1" parent="nDwCT-81fd5Fx0zlanSL-10" source="nDwCT-81fd5Fx0zlanSL-67" target="nDwCT-81fd5Fx0zlanSL-68">
          <mxGeometry width="160" relative="1" as="geometry">
            <mxPoint x="1178" y="52" as="sourcePoint" />
            <mxPoint x="1338" y="52" as="targetPoint" />
          </mxGeometry>
        </mxCell>
        <mxCell id="nDwCT-81fd5Fx0zlanSL-111" value="" style="edgeStyle=elbowEdgeStyle;fontSize=12;html=1;endArrow=blockThin;endFill=1;startArrow=diamondThin;startFill=0;endSize=6;startSize=10;rounded=0;exitX=1;exitY=0.5;exitDx=0;exitDy=0;exitPerimeter=0;entryX=0;entryY=0.25;entryDx=0;entryDy=0;entryPerimeter=0;" edge="1" parent="nDwCT-81fd5Fx0zlanSL-10" source="nDwCT-81fd5Fx0zlanSL-67" target="nDwCT-81fd5Fx0zlanSL-69">
          <mxGeometry width="160" relative="1" as="geometry">
            <mxPoint x="1179" y="81" as="sourcePoint" />
            <mxPoint x="1339" y="81" as="targetPoint" />
          </mxGeometry>
        </mxCell>
        <mxCell id="nDwCT-81fd5Fx0zlanSL-113" value="" style="edgeStyle=elbowEdgeStyle;fontSize=12;html=1;endArrow=blockThin;endFill=1;startArrow=diamondThin;startFill=0;endSize=6;startSize=10;rounded=0;exitX=1;exitY=0.75;exitDx=0;exitDy=0;exitPerimeter=0;entryX=0;entryY=0.5;entryDx=0;entryDy=0;entryPerimeter=0;" edge="1" parent="nDwCT-81fd5Fx0zlanSL-10" source="nDwCT-81fd5Fx0zlanSL-67" target="nDwCT-81fd5Fx0zlanSL-70">
          <mxGeometry width="160" relative="1" as="geometry">
            <mxPoint x="1163" y="112" as="sourcePoint" />
            <mxPoint x="1338" y="125" as="targetPoint" />
          </mxGeometry>
        </mxCell>
      </root>
    </mxGraphModel>
  </diagram>
</mxfile>
